<svg xmlns:xlink="http://www.w3.org/1999/xlink" xmlns="http://www.w3.org/2000/svg" width="170" height="40" viewBox="0 0 170 40" fill="none">
<g clip-path="url(#clip0_8167_4900)">
<path d="M51.583 16.8418L63.8633 4.63195L59.2046 0L49.2536 9.89379L39.3026 0L34.6439 4.63195L46.9243 16.8418C47.5675 17.4814 48.4106 17.8011 49.2536 17.8011C50.0966 17.8011 50.9397 17.4815 51.583 16.8418ZM69.3606 29.8853L59.4096 19.9916L69.3606 10.0976L64.7019 5.46562L52.4215 17.6756C51.1351 18.9547 51.1351 21.0284 52.4215 22.3075L64.7019 34.5174L69.3606 29.8854V29.8853ZM49.2366 30.1062L59.1875 40L63.8462 35.368L51.5659 23.1582C50.2793 21.8792 48.1936 21.8792 46.9072 23.1582L34.6269 35.368L39.2855 40L49.2365 30.1062H49.2366ZM46.0687 22.3245C46.6865 21.7103 47.0336 20.8772 47.0336 20.0085C47.0336 19.1399 46.6865 18.3068 46.0687 17.6926L33.7884 5.48271L29.1297 10.1147L39.0808 20.0084L29.1297 29.9024L33.7884 34.5344L46.0687 22.3244V22.3245ZM28.9637 38.3934H18.6364L17.893 33.7241H11.16L10.3449 38.3934H0.0175781L8.90716 1.6067H21.1279L28.9637 38.3934ZM16.7194 25.8376L16.0723 21.5491C16.0546 21.5335 16.0241 21.3187 15.976 20.9047C15.9446 20.5571 15.7767 19.1745 15.4732 16.7608C15.4408 16.4903 15.4015 16.1212 15.3534 15.6525C15.3053 15.1838 15.2414 14.5912 15.1619 13.8764L14.8486 10.3994C14.8182 10.7333 14.774 11.1063 14.718 11.5193C14.662 11.9324 14.6021 12.3844 14.5383 12.8775C14.4263 13.8618 14.3468 14.5453 14.2987 14.9261C14.2496 15.3059 14.2191 15.5373 14.2034 15.6174L13.5081 20.0708L12.5015 25.8376H16.7194ZM90.6869 38.3933V29.5551H82.1089V23.9313H89.7999V15.6177H82.1089V10.2571H90.6869V1.60709H72.1162V38.3932H90.6869V38.3933ZM110.34 29.5551H102.84V1.60709H92.8476V38.3932H110.34V29.555V29.5551ZM141.023 38.3935H130.697L129.953 33.7242H123.22L122.405 38.3935H112.077L120.967 1.6067H133.188L141.023 38.3934V38.3935ZM128.78 25.8377L128.132 21.5492C128.115 21.5336 128.084 21.3188 128.036 20.9048C128.005 20.5572 127.836 19.1746 127.533 16.7609C127.5 16.4904 127.462 16.1213 127.413 15.6526C127.365 15.1839 127.301 14.5913 127.223 13.8765L126.909 10.3995C126.878 10.7334 126.834 11.1064 126.778 11.5194C126.722 11.9325 126.662 12.3845 126.598 12.8776C126.486 13.8619 126.406 14.5454 126.358 14.9262C126.31 15.306 126.279 15.5374 126.264 15.6175L125.568 20.0709L124.561 25.8377H128.78ZM169.491 38.3935H158.685L153.75 25.2899C153.702 25.0673 153.616 24.7734 153.496 24.4082C153.377 24.043 153.229 23.6066 153.054 23.0978L153.125 25.5282V38.3935H143.181V1.6067H153.413C157.918 1.6067 161.288 2.48939 163.526 4.25281C166.368 6.50834 167.79 9.71686 167.79 13.8764C167.79 18.325 165.881 21.3988 162.063 23.0977L169.491 38.3934V38.3935ZM157.87 13.9956C157.87 11.249 156.424 9.87514 153.533 9.87514H153.173V18.6415H153.844C154.994 18.6415 155.953 18.206 156.72 17.3311C157.487 16.4592 157.87 15.347 157.87 13.9956Z" fill="black"/>
</g>
<defs>
<clipPath id="clip0_8167_4900">
<rect width="169.474" height="40" fill="white" transform="translate(0.0175781)"/>
</clipPath>
</defs>
</svg>